<?xml version="1.0" encoding="UTF-8"?>
<svg width="50px" height="50px" viewBox="0 0 50 50" version="1.1" xmlns="http://www.w3.org/2000/svg" xmlns:xlink="http://www.w3.org/1999/xlink">
    <!-- Generator: sketchtool 51.2 (57519) - http://www.bohemiancoding.com/sketch -->
    <title>E1AF7EA2-5807-4AE5-93BD-9CA41E32CDE2</title>
    <desc>Created with sketchtool.</desc>
    <defs></defs>
    <g id="Symbols" stroke="none" stroke-width="1" fill="none" fill-rule="evenodd">
        <g id="90" fill="#FFFFFF">
            <path d="M20.2386719,27.0791016 C19.0472597,28.3388735 17.655672,28.96875 16.0638672,28.96875 C14.1888578,28.96875 12.6947322,28.3120183 11.5814453,26.9985352 C10.4681585,25.685052 9.91152346,23.9589951 9.91152346,21.8203125 C9.91152346,20.4140555 10.1947238,19.1396542 10.7611328,17.9970703 C11.3275419,16.8544865 12.1331979,15.9658235 13.178125,15.3310547 C14.2230521,14.6962859 15.4339775,14.3789062 16.8109375,14.3789062 C18.9593858,14.3789062 20.6634703,15.1796795 21.9232422,16.78125 C23.1830141,18.3828205 23.8128906,20.5263538 23.8128906,23.2119141 L23.8128906,24.2080078 C23.8128906,28.0556833 22.9437587,30.9902243 21.2054688,33.0117188 C19.4671788,35.0332132 16.8744313,36.0585936 13.4271485,36.0878906 L13.0023438,36.0878906 L13.0023438,33.1435547 L13.5150391,33.1435547 C15.614659,33.1142577 17.225971,32.6088916 18.3490235,31.6274414 C19.472076,30.6459912 20.1019525,29.1298931 20.2386719,27.0791016 Z M16.8109375,26.1855469 C17.5238317,26.1855469 18.1927703,25.9804708 18.8177735,25.5703125 C19.4427766,25.1601542 19.9261702,24.5937536 20.2679688,23.8710938 L20.2679688,22.4794922 C20.2679688,20.9072187 19.9457064,19.6425829 19.3011719,18.6855469 C18.6566374,17.7285108 17.8216848,17.25 16.7962891,17.25 C15.7708933,17.25 14.9530304,17.6723591 14.3426758,18.5170898 C13.7323212,19.3618206 13.4271485,20.4287045 13.4271485,21.7177734 C13.4271485,23.0556708 13.7347626,24.1347615 14.35,24.9550781 C14.9652375,25.7753947 15.7855418,26.1855469 16.8109375,26.1855469 Z M39.8980469,27.0205078 C39.8980469,30.0869294 39.3243221,32.398918 38.1768554,33.956543 C37.0293888,35.5141679 35.2838008,36.2929688 32.940039,36.2929688 C30.63534,36.2929688 28.8995175,35.533699 27.7325195,34.0151367 C26.5655215,32.4965744 25.9673829,30.2480618 25.9380859,27.2695312 L25.9380859,23.578125 C25.9380859,20.5117034 26.5118106,18.2119217 27.6592773,16.6787109 C28.806744,15.1455001 30.5572148,14.3789062 32.9107422,14.3789062 C35.2447382,14.3789062 36.9854435,15.1259691 38.1329101,16.6201172 C39.2803768,18.1142653 39.8687498,20.350571 39.8980469,23.3291016 L39.8980469,27.0205078 Z M36.3384765,23.0361328 C36.3384765,21.0341697 36.0650418,19.5668992 35.518164,18.6342773 C34.9712863,17.7016555 34.1021544,17.2353516 32.9107422,17.2353516 C31.748627,17.2353516 30.8941433,17.6772417 30.3472656,18.5610352 C29.8003879,19.4448286 29.5123048,20.8242094 29.4830078,22.6992188 L29.4830078,27.5332031 C29.4830078,29.5254006 29.7613253,31.0097607 30.3179687,31.9863281 C30.8746121,32.9628955 31.7486268,33.4511719 32.940039,33.4511719 C34.0826229,33.4511719 34.927341,32.9995162 35.4742187,32.0961914 C36.0210965,31.1928666 36.3091795,29.7793065 36.3384765,27.8554688 L36.3384765,23.0361328 Z"></path>
        </g>
    </g>
</svg>