<?xml version="1.0" encoding="UTF-8"?>
<svg width="172px" height="174px" viewBox="0 0 172 174" version="1.1" xmlns="http://www.w3.org/2000/svg" xmlns:xlink="http://www.w3.org/1999/xlink">
    <!-- Generator: sketchtool 51.2 (57519) - http://www.bohemiancoding.com/sketch -->
    <title>8576E847-D8A4-40C9-BB8E-601713245966</title>
    <desc>Created with sketchtool.</desc>
    <defs>
        <circle id="path-1" cx="86" cy="86" r="86"></circle>
        <filter x="-14.0%" y="-10.5%" width="127.9%" height="127.9%" filterUnits="objectBoundingBox" id="filter-2">
            <feOffset dx="0" dy="6" in="SourceAlpha" result="shadowOffsetOuter1"></feOffset>
            <feGaussianBlur stdDeviation="7" in="shadowOffsetOuter1" result="shadowBlurOuter1"></feGaussianBlur>
            <feColorMatrix values="0 0 0 0 0.921568627   0 0 0 0 0.897628277   0 0 0 0 0.894117647  0 0 0 1 0" type="matrix" in="shadowBlurOuter1"></feColorMatrix>
        </filter>
    </defs>
    <g id="Symbols" stroke="none" stroke-width="1" fill="none" fill-rule="evenodd">
        <g id="Fone">
            <g id="Oval">
                <use fill="black" fill-opacity="1" filter="url(#filter-2)" xlink:href="#path-1"></use>
                <use fill="#FFFFFF" fill-rule="evenodd" xlink:href="#path-1"></use>
            </g>
            <g id="Icon/Material/AV/ic_mic" transform="translate(19.000000, 19.000000)" fill="#F86B6A">
                <path d="M67.2,78.4 C76.496,78.4 83.944,70.896 83.944,61.6 L84,28 C84,18.704 76.496,11.2 67.2,11.2 C57.904,11.2 50.4,18.704 50.4,28 L50.4,61.6 C50.4,70.896 57.904,78.4 67.2,78.4 L67.2,78.4 Z M72.8,112 L95.2,112 L95.2,123.2 L39.2,123.2 L39.2,112 L61.6,112 L61.6,99.232 C43.232,96.488 28,80.696 28,61.6 L37.52,61.6 C37.52,78.4 51.744,90.16 67.2,90.16 C82.656,90.16 96.88,78.4 96.88,61.6 L106.4,61.6 C106.4,80.752 91.168,96.544 72.8,99.232 L72.8,112 Z" id="Combined-Shape"></path>
            </g>
        </g>
    </g>
</svg>