<?xml version="1.0" encoding="UTF-8"?>
<svg width="24px" height="24px" viewBox="0 0 24 24" version="1.1" xmlns="http://www.w3.org/2000/svg" xmlns:xlink="http://www.w3.org/1999/xlink">
    <!-- Generator: sketchtool 51.2 (57519) - http://www.bohemiancoding.com/sketch -->
    <title>2B870699-3EB0-47DB-9784-D7DFF5EF18A9</title>
    <desc>Created with sketchtool.</desc>
    <defs></defs>
    <g id="Symbols" stroke="none" stroke-width="1" fill="none" fill-rule="evenodd">
        <g id="Icon/Material/AV/ic_mic" fill="#F86B6A">
            <path d="M12,14 C13.66,14 14.99,12.66 14.99,11 L15,5 C15,3.34 13.66,2 12,2 C10.34,2 9,3.34 9,5 L9,11 C9,12.66 10.34,14 12,14 L12,14 Z M13,20 L17,20 L17,22 L7,22 L7,20 L11,20 L11,17.72 C7.72,17.23 5,14.41 5,11 L6.7,11 C6.7,14 9.24,16.1 12,16.1 C14.76,16.1 17.3,14 17.3,11 L19,11 C19,14.42 16.28,17.24 13,17.72 L13,20 Z" id="Combined-Shape"></path>
        </g>
    </g>
</svg>