<?xml version="1.0" encoding="UTF-8"?>
<svg width="315px" height="45px" viewBox="0 0 315 45" version="1.1" xmlns="http://www.w3.org/2000/svg" xmlns:xlink="http://www.w3.org/1999/xlink">
    <!-- Generator: sketchtool 51.2 (57519) - http://www.bohemiancoding.com/sketch -->
    <title>B39603D3-B96F-46D4-AF30-FFCB793FAB37</title>
    <desc>Created with sketchtool.</desc>
    <defs>
        <path d="M1.5,17 C2.32842712,17 3,17.6715729 3,18.5 L3,27.5 C3,28.3284271 2.32842712,29 1.5,29 C0.671572875,29 1.01453063e-16,28.3284271 0,27.5 L4.4408921e-16,18.5 C3.42636147e-16,17.6715729 0.671572875,17 1.5,17 Z M7.5,14 C8.32842712,14 9,14.6715729 9,15.5 L9,30.5 C9,31.3284271 8.32842712,32 7.5,32 C6.67157288,32 6,31.3284271 6,30.5 L6,15.5 C6,14.6715729 6.67157288,14 7.5,14 Z M13.5,12 C14.3284271,12 15,12.6715729 15,13.5 L15,32.5 C15,33.3284271 14.3284271,34 13.5,34 C12.6715729,34 12,33.3284271 12,32.5 L12,13.5 C12,12.6715729 12.6715729,12 13.5,12 Z M19.5,3 C20.3284271,3 21,3.67157288 21,4.5 L21,41.5 C21,42.3284271 20.3284271,43 19.5,43 C18.6715729,43 18,42.3284271 18,41.5 L18,4.5 C18,3.67157288 18.6715729,3 19.5,3 Z M25.5,15 C26.3284271,15 27,15.6715729 27,16.5 L27,28.5 C27,29.3284271 26.3284271,30 25.5,30 C24.6715729,30 24,29.3284271 24,28.5 L24,16.5 C24,15.6715729 24.6715729,15 25.5,15 Z M31.5,13 C32.3284271,13 33,13.6715729 33,14.5 L33,32.5 C33,33.3284271 32.3284271,34 31.5,34 C30.6715729,34 30,33.3284271 30,32.5 L30,14.5 C30,13.6715729 30.6715729,13 31.5,13 Z M37.5,8 C38.3284271,8 39,8.67157288 39,9.5 L39,36.5 C39,37.3284271 38.3284271,38 37.5,38 C36.6715729,38 36,37.3284271 36,36.5 L36,9.5 C36,8.67157288 36.6715729,8 37.5,8 Z M43.5,3 C44.3284271,3 45,3.67157288 45,4.5 L45,41.5 C45,42.3284271 44.3284271,43 43.5,43 C42.6715729,43 42,42.3284271 42,41.5 L42,4.5 C42,3.67157288 42.6715729,3 43.5,3 Z M49.5,12 C50.3284271,12 51,12.6715729 51,13.5 L51,32.5 C51,33.3284271 50.3284271,34 49.5,34 C48.6715729,34 48,33.3284271 48,32.5 L48,13.5 C48,12.6715729 48.6715729,12 49.5,12 Z M55.5,5 C56.3284271,5 57,5.67157288 57,6.5 L57,39.5 C57,40.3284271 56.3284271,41 55.5,41 C54.6715729,41 54,40.3284271 54,39.5 L54,6.5 C54,5.67157288 54.6715729,5 55.5,5 Z M61.5,13 C62.3284271,13 63,13.6715729 63,14.5 L63,32.5 C63,33.3284271 62.3284271,34 61.5,34 C60.6715729,34 60,33.3284271 60,32.5 L60,14.5 C60,13.6715729 60.6715729,13 61.5,13 Z M67.5,3 C68.3284271,3 69,3.67157288 69,4.5 L69,41.5 C69,42.3284271 68.3284271,43 67.5,43 C66.6715729,43 66,42.3284271 66,41.5 L66,4.5 C66,3.67157288 66.6715729,3 67.5,3 Z M73.5,12 C74.3284271,12 75,12.6715729 75,13.5 L75,32.5 C75,33.3284271 74.3284271,34 73.5,34 C72.6715729,34 72,33.3284271 72,32.5 L72,13.5 C72,12.6715729 72.6715729,12 73.5,12 Z M79.5,8 C80.3284271,8 81,8.67157288 81,9.5 L81,37.5 C81,38.3284271 80.3284271,39 79.5,39 C78.6715729,39 78,38.3284271 78,37.5 L78,9.5 C78,8.67157288 78.6715729,8 79.5,8 Z M85.5,8 C86.3284271,8 87,8.67157288 87,9.5 L87,36.5 C87,37.3284271 86.3284271,38 85.5,38 C84.6715729,38 84,37.3284271 84,36.5 L84,9.5 C84,8.67157288 84.6715729,8 85.5,8 Z M91.5,12 C92.3284271,12 93,12.6715729 93,13.5 L93,32.5 C93,33.3284271 92.3284271,34 91.5,34 C90.6715729,34 90,33.3284271 90,32.5 L90,13.5 C90,12.6715729 90.6715729,12 91.5,12 Z M97.5,0 C98.3284271,-1.52179594e-16 99,0.671572875 99,1.5 L99,43.5 C99,44.3284271 98.3284271,45 97.5,45 C96.6715729,45 96,44.3284271 96,43.5 L96,1.5 C96,0.671572875 96.6715729,1.52179594e-16 97.5,0 Z M103.5,14 C104.328427,14 105,14.6715729 105,15.5 L105,30.5 C105,31.3284271 104.328427,32 103.5,32 C102.671573,32 102,31.3284271 102,30.5 L102,15.5 C102,14.6715729 102.671573,14 103.5,14 Z M109.5,5 C110.328427,5 111,5.67157288 111,6.5 L111,39.5 C111,40.3284271 110.328427,41 109.5,41 C108.671573,41 108,40.3284271 108,39.5 L108,6.5 C108,5.67157288 108.671573,5 109.5,5 Z M115.5,6 C116.328427,6 117,6.67157288 117,7.5 L117,36.5 C117,37.3284271 116.328427,38 115.5,38 C114.671573,38 114,37.3284271 114,36.5 L114,7.5 C114,6.67157288 114.671573,6 115.5,6 Z M121.5,13 C122.328427,13 123,13.6715729 123,14.5 L123,32.5 C123,33.3284271 122.328427,34 121.5,34 C120.671573,34 120,33.3284271 120,32.5 L120,14.5 C120,13.6715729 120.671573,13 121.5,13 Z M127.5,13 C128.328427,13 129,13.6715729 129,14.5 L129,32.5 C129,33.3284271 128.328427,34 127.5,34 C126.671573,34 126,33.3284271 126,32.5 L126,14.5 C126,13.6715729 126.671573,13 127.5,13 Z M133.5,5 C134.328427,5 135,5.67157288 135,6.5 L135,38.5 C135,39.3284271 134.328427,40 133.5,40 C132.671573,40 132,39.3284271 132,38.5 L132,6.5 C132,5.67157288 132.671573,5 133.5,5 Z M139.5,15 C140.328427,15 141,15.6715729 141,16.5 L141,28.5 C141,29.3284271 140.328427,30 139.5,30 C138.671573,30 138,29.3284271 138,28.5 L138,16.5 C138,15.6715729 138.671573,15 139.5,15 Z M145.5,6 C146.328427,6 147,6.67157288 147,7.5 L147,37.5 C147,38.3284271 146.328427,39 145.5,39 C144.671573,39 144,38.3284271 144,37.5 L144,7.5 C144,6.67157288 144.671573,6 145.5,6 Z M151.5,13 C152.328427,13 153,13.6715729 153,14.5 L153,32.5 C153,33.3284271 152.328427,34 151.5,34 C150.671573,34 150,33.3284271 150,32.5 L150,14.5 C150,13.6715729 150.671573,13 151.5,13 Z M157.5,0 C158.328427,-1.52179594e-16 159,0.671572875 159,1.5 L159,43.5 C159,44.3284271 158.328427,45 157.5,45 C156.671573,45 156,44.3284271 156,43.5 L156,1.5 C156,0.671572875 156.671573,1.52179594e-16 157.5,0 Z M163.5,13 C164.328427,13 165,13.6715729 165,14.5 L165,32.5 C165,33.3284271 164.328427,34 163.5,34 C162.671573,34 162,33.3284271 162,32.5 L162,14.5 C162,13.6715729 162.671573,13 163.5,13 Z M169.5,13 C170.328427,13 171,13.6715729 171,14.5 L171,32.5 C171,33.3284271 170.328427,34 169.5,34 C168.671573,34 168,33.3284271 168,32.5 L168,14.5 C168,13.6715729 168.671573,13 169.5,13 Z M175.5,15 C176.328427,15 177,15.6715729 177,16.5 L177,28.5 C177,29.3284271 176.328427,30 175.5,30 C174.671573,30 174,29.3284271 174,28.5 L174,16.5 C174,15.6715729 174.671573,15 175.5,15 Z M181.5,5 C182.328427,5 183,5.67157288 183,6.5 L183,38.5 C183,39.3284271 182.328427,40 181.5,40 C180.671573,40 180,39.3284271 180,38.5 L180,6.5 C180,5.67157288 180.671573,5 181.5,5 Z M187.5,9 C188.328427,9 189,9.67157288 189,10.5 L189,34.5 C189,35.3284271 188.328427,36 187.5,36 C186.671573,36 186,35.3284271 186,34.5 L186,10.5 C186,9.67157288 186.671573,9 187.5,9 Z M193.5,4 C194.328427,4 195,4.67157288 195,5.5 L195,41.5 C195,42.3284271 194.328427,43 193.5,43 C192.671573,43 192,42.3284271 192,41.5 L192,5.5 C192,4.67157288 192.671573,4 193.5,4 Z M199.5,12 C200.328427,12 201,12.6715729 201,13.5 L201,32.5 C201,33.3284271 200.328427,34 199.5,34 C198.671573,34 198,33.3284271 198,32.5 L198,13.5 C198,12.6715729 198.671573,12 199.5,12 Z M205.5,6 C206.328427,6 207,6.67157288 207,7.5 L207,37.5 C207,38.3284271 206.328427,39 205.5,39 C204.671573,39 204,38.3284271 204,37.5 L204,7.5 C204,6.67157288 204.671573,6 205.5,6 Z M211.5,9 C212.328427,9 213,9.67157288 213,10.5 L213,34.5 C213,35.3284271 212.328427,36 211.5,36 C210.671573,36 210,35.3284271 210,34.5 L210,10.5 C210,9.67157288 210.671573,9 211.5,9 Z M217.5,8 C218.328427,8 219,8.67157288 219,9.5 L219,36.5 C219,37.3284271 218.328427,38 217.5,38 C216.671573,38 216,37.3284271 216,36.5 L216,9.5 C216,8.67157288 216.671573,8 217.5,8 Z M223.5,12 C224.328427,12 225,12.6715729 225,13.5 L225,32.5 C225,33.3284271 224.328427,34 223.5,34 C222.671573,34 222,33.3284271 222,32.5 L222,13.5 C222,12.6715729 222.671573,12 223.5,12 Z M229.5,8 C230.328427,8 231,8.67157288 231,9.5 L231,37.5 C231,38.3284271 230.328427,39 229.5,39 C228.671573,39 228,38.3284271 228,37.5 L228,9.5 C228,8.67157288 228.671573,8 229.5,8 Z M235.5,15 C236.328427,15 237,15.6715729 237,16.5 L237,28.5 C237,29.3284271 236.328427,30 235.5,30 C234.671573,30 234,29.3284271 234,28.5 L234,16.5 C234,15.6715729 234.671573,15 235.5,15 Z M241.5,12 C242.328427,12 243,12.6715729 243,13.5 L243,32.5 C243,33.3284271 242.328427,34 241.5,34 C240.671573,34 240,33.3284271 240,32.5 L240,13.5 C240,12.6715729 240.671573,12 241.5,12 Z M247.5,13 C248.328427,13 249,13.6715729 249,14.5 L249,32.5 C249,33.3284271 248.328427,34 247.5,34 C246.671573,34 246,33.3284271 246,32.5 L246,14.5 C246,13.6715729 246.671573,13 247.5,13 Z M253.5,12 C254.328427,12 255,12.6715729 255,13.5 L255,32.5 C255,33.3284271 254.328427,34 253.5,34 C252.671573,34 252,33.3284271 252,32.5 L252,13.5 C252,12.6715729 252.671573,12 253.5,12 Z M259.5,5 C260.328427,5 261,5.67157288 261,6.5 L261,39.5 C261,40.3284271 260.328427,41 259.5,41 C258.671573,41 258,40.3284271 258,39.5 L258,6.5 C258,5.67157288 258.671573,5 259.5,5 Z M265.5,13 C266.328427,13 267,13.6715729 267,14.5 L267,32.5 C267,33.3284271 266.328427,34 265.5,34 C264.671573,34 264,33.3284271 264,32.5 L264,14.5 C264,13.6715729 264.671573,13 265.5,13 Z M271.5,15 C272.328427,15 273,15.6715729 273,16.5 L273,28.5 C273,29.3284271 272.328427,30 271.5,30 C270.671573,30 270,29.3284271 270,28.5 L270,16.5 C270,15.6715729 270.671573,15 271.5,15 Z M277.5,8 C278.328427,8 279,8.67157288 279,9.5 L279,36.5 C279,37.3284271 278.328427,38 277.5,38 C276.671573,38 276,37.3284271 276,36.5 L276,9.5 C276,8.67157288 276.671573,8 277.5,8 Z M283.5,13 C284.328427,13 285,13.6715729 285,14.5 L285,32.5 C285,33.3284271 284.328427,34 283.5,34 C282.671573,34 282,33.3284271 282,32.5 L282,14.5 C282,13.6715729 282.671573,13 283.5,13 Z M289.5,12 C290.328427,12 291,12.6715729 291,13.5 L291,32.5 C291,33.3284271 290.328427,34 289.5,34 C288.671573,34 288,33.3284271 288,32.5 L288,13.5 C288,12.6715729 288.671573,12 289.5,12 Z M295.5,15 C296.328427,15 297,15.6715729 297,16.5 L297,28.5 C297,29.3284271 296.328427,30 295.5,30 C294.671573,30 294,29.3284271 294,28.5 L294,16.5 C294,15.6715729 294.671573,15 295.5,15 Z M301.5,12 C302.328427,12 303,12.6715729 303,13.5 L303,32.5 C303,33.3284271 302.328427,34 301.5,34 C300.671573,34 300,33.3284271 300,32.5 L300,13.5 C300,12.6715729 300.671573,12 301.5,12 Z M307.5,8 C308.328427,8 309,8.67157288 309,9.5 L309,37.5 C309,38.3284271 308.328427,39 307.5,39 C306.671573,39 306,38.3284271 306,37.5 L306,9.5 C306,8.67157288 306.671573,8 307.5,8 Z M313.5,13 C314.328427,13 315,13.6715729 315,14.5 L315,32.5 C315,33.3284271 314.328427,34 313.5,34 C312.671573,34 312,33.3284271 312,32.5 L312,14.5 C312,13.6715729 312.671573,13 313.5,13 Z" id="path-1"></path>
    </defs>
    <g id="Page-1" stroke="none" stroke-width="1" fill="none" fill-rule="evenodd">
        <g id="Home-On" transform="translate(-23.000000, -324.000000)">
            <g id="Group-2" transform="translate(23.000000, 324.000000)">
                <g id="seek-bar-copy">
                    <g id="seek-bar">
                        <mask id="mask-2" fill="white">
                            <use xlink:href="#path-1"></use>
                        </mask>
                        <use id="Combined-Shape" fill="#C4C4C4" xlink:href="#path-1"></use>
                    </g>
                </g>
            </g>
        </g>
    </g>
</svg>